<?xml version="1.0" standalone="no"?>
<!DOCTYPE svg PUBLIC "-//W3C//DTD SVG 20010904//EN"
 "http://www.w3.org/TR/2001/REC-SVG-20010904/DTD/svg10.dtd">
<svg version="1.0" xmlns="http://www.w3.org/2000/svg"
 width="512.000000pt" height="512.000000pt" viewBox="0 0 512.000000 512.000000"
 preserveAspectRatio="xMidYMid meet">
<metadata>
Created by potrace 1.14, written by Peter Selinger 2001-2017
</metadata>
<g transform="translate(0.000000,512.000000) scale(0.100000,-0.100000)"
fill="#000000" stroke="none">
<path d="M3392 4736 c-43 -136 -151 -298 -305 -455 -134 -136 -263 -239 -732
-586 -428 -316 -628 -515 -683 -681 -34 -99 -56 -224 -56 -314 0 -95 25 -192
76 -295 34 -66 129 -208 181 -269 l34 -40 6 105 c18 300 152 535 433 755 44
35 191 133 325 219 134 87 276 182 314 213 261 209 427 468 491 764 25 113 26
361 1 471 -23 107 -47 187 -55 187 -4 0 -18 -33 -30 -74z"/>
<path d="M3215 2992 c7 -35 -10 -187 -30 -267 -21 -84 -97 -236 -155 -314
-106 -143 -258 -268 -534 -441 -250 -156 -380 -252 -491 -364 -206 -206 -327
-440 -366 -706 -19 -132 -7 -342 28 -474 15 -60 33 -111 39 -113 6 -2 14 11
18 29 19 102 111 261 234 408 121 145 270 272 577 495 614 444 753 560 858
721 54 83 71 140 87 297 20 188 -7 336 -91 502 -53 106 -152 255 -170 255 -6
0 -8 -11 -4 -28z"/>
</g>
</svg>
